<svg xmlns="http://www.w3.org/2000/svg" width="27" height="32">
	<g fill="none" fill-rule="evenodd">
		<path fill="#66ABFF" d="M7.993 25.838C3.283 23.731 0 19.001 0 13.505 0 6.046 6.044 0 13.5 0S27 6.046 27 13.505c0 5.464-3.245 10.171-7.912 12.297-5.282 2.678-3.87 6.148-5.588 6.148-1.711 0-.208-3.438-5.507-6.112z"/>
		<path fill="#FFF" d="M13.95 11.893v8.132L13.5 21.6l-.45-1.575v-8.132a3.177 3.177 0 0 0 .9 0zm-.45-.418a2.7 2.7 0 1 1 0-5.4 2.7 2.7 0 0 1 0 5.4zM12.713 8.1a.562.562 0 1 0 0-1.125.562.562 0 0 0 0 1.125z"/>
	</g>
</svg>